<?xml version="1.0" encoding="UTF-8" standalone="no"?>
<!-- Created with Inkscape (http://www.inkscape.org/) -->

<svg
   xmlns:dc="http://purl.org/dc/elements/1.1/"
   xmlns:cc="http://creativecommons.org/ns#"
   xmlns:rdf="http://www.w3.org/1999/02/22-rdf-syntax-ns#"
   xmlns:svg="http://www.w3.org/2000/svg"
   xmlns="http://www.w3.org/2000/svg"
   xmlns:sodipodi="http://sodipodi.sourceforge.net/DTD/sodipodi-0.dtd"
   xmlns:inkscape="http://www.inkscape.org/namespaces/inkscape"
   width="210mm"
   height="297mm"
   viewBox="0 0 210 297"
   version="1.1"
   id="svg13873"
   inkscape:version="0.92.1 r15371"
   sodipodi:docname="1.svg">
  <defs
     id="defs13867" />
  <sodipodi:namedview
     id="base"
     pagecolor="#ffffff"
     bordercolor="#666666"
     borderopacity="1.0"
     inkscape:pageopacity="0.0"
     inkscape:pageshadow="2"
     inkscape:zoom="0.36703143"
     inkscape:cx="269.7004"
     inkscape:cy="606.20856"
     inkscape:document-units="mm"
     inkscape:current-layer="layer1"
     showgrid="false"
     inkscape:window-width="853"
     inkscape:window-height="623"
     inkscape:window-x="-8"
     inkscape:window-y="-8"
     inkscape:window-maximized="1" />
  <metadata
     id="metadata13870">
    <rdf:RDF>
      <cc:Work
         rdf:about="">
        <dc:format>image/svg+xml</dc:format>
        <dc:type
           rdf:resource="http://purl.org/dc/dcmitype/StillImage" />
        <dc:title></dc:title>
      </cc:Work>
    </rdf:RDF>
  </metadata>
  <g
     inkscape:label="Camada 1"
     inkscape:groupmode="layer"
     id="layer1">
    <g
       transform="matrix(0.06154669,0,0,-0.06154669,-2756.5213,648.56636)"
       id="g252"
       style="fill:#131112">
      <path
         d="m 46512,8978.6 c 550.38,-5.2903 895.08,28.958 941.86,-581.28 h 671.31 c 0,945.2 -824.45,1072.5 -1630.8,1072.5 -806.26,0 -1630.7,-127.34 -1630.7,-1072.5 h 666.21 c 51.511,621.94 436.12,586.76 982.14,581.28"
         id="path244"
         inkscape:connector-curvature="0" />
      <path
         d="m 45196,8093.6 c 163.54,0 299.51,-9.7453 329.76,151.01 4.176,21.996 6.497,46.592 6.497,75.364 h -672.52 c 0,-239.27 150.64,-226.37 336.26,-226.37"
         id="path246"
         inkscape:connector-curvature="0" />
      <path
         d="m 47458,8319.9 h -6.312 c 0,-28.957 2.506,-53.831 7.054,-75.364 31.928,-148.22 167.9,-139.13 330.88,-139.13 186.46,0 337.65,-12.344 337.65,214.49 h -669.27"
         id="path248"
         inkscape:connector-curvature="0" />
      <path
         d="m 46841,8003.4 c -51.139,0 -92.627,41.394 -92.627,92.72 0,51.232 41.488,92.72 92.627,92.72 51.233,0 92.627,-41.487 92.627,-92.72 0,-51.325 -41.394,-92.72 -92.627,-92.72 z m 0,-317.6 c -51.139,0 -92.627,41.487 -92.627,92.534 0,51.325 41.488,92.72 92.627,92.72 51.233,0 92.627,-41.394 92.627,-92.72 0,-51.047 -41.394,-92.534 -92.627,-92.534 z m 0,-317.79 c -51.139,0 -92.627,41.487 -92.627,92.534 0,51.325 41.488,92.72 92.627,92.72 51.233,0 92.627,-41.394 92.627,-92.72 0,-51.047 -41.394,-92.534 -92.627,-92.534 z m -381.27,635.39 c -51.232,0 -92.627,41.394 -92.627,92.72 0,51.232 41.395,92.72 92.627,92.72 51.14,0 92.627,-41.487 92.627,-92.72 0,-51.325 -41.487,-92.72 -92.627,-92.72 z m 0,-317.6 c -51.232,0 -92.627,41.487 -92.627,92.534 0,51.325 41.395,92.72 92.627,92.72 51.14,0 92.627,-41.394 92.627,-92.72 0,-51.047 -41.487,-92.534 -92.627,-92.534 z m 0,-317.79 c -51.232,0 -92.627,41.487 -92.627,92.534 0,51.325 41.395,92.72 92.627,92.72 51.14,0 92.627,-41.394 92.627,-92.72 0,-51.047 -41.487,-92.534 -92.627,-92.534 z m -381.18,635.39 c -51.325,0 -92.812,41.394 -92.812,92.72 0,51.232 41.487,92.72 92.812,92.72 51.14,0 92.627,-41.487 92.627,-92.72 0,-51.325 -41.487,-92.72 -92.627,-92.72 z m 0,-317.6 c -51.325,0 -92.812,41.487 -92.812,92.534 0,51.325 41.487,92.72 92.812,92.72 51.14,0 92.627,-41.394 92.627,-92.72 0,-51.047 -41.487,-92.534 -92.627,-92.534 z m 0,-317.79 c -51.325,0 -92.812,41.487 -92.812,92.534 0,51.325 41.487,92.72 92.812,92.72 51.14,0 92.627,-41.394 92.627,-92.72 0,-51.047 -41.487,-92.534 -92.627,-92.534 z m 1051.2,1114.8 v 95.04 c 0,42.601 -49.098,45.107 -109.7,45.107 h -98.566 c -60.514,0 -109.52,-2.506 -109.52,-45.107 v -145.44 h -699.16 v 145.44 c 0,42.601 -48.912,45.107 -109.33,45.107 h -98.752 c -60.607,0 -109.52,-2.506 -109.52,-45.107 v -178.01 c -159.36,-165.48 -680.32,-869.93 -699.16,-955.23 l 0.185,-569.22 c 0,-52.439 42.787,-95.226 95.133,-95.226 h 2542 c 52.347,0 95.133,42.786 95.133,95.226 v 572 c -18.655,82.696 -539.61,786.96 -698.78,952.44 v 82.974"
         id="path250"
         inkscape:connector-curvature="0" />
    </g>
  </g>
</svg>
